<svg xmlns="http://www.w3.org/2000/svg" width="current" height="current" viewBox="0 0 20 20" fill="none">
<path fill-rule="evenodd" clip-rule="evenodd" d="M10.0001 1.66699C5.39175 1.66699 1.66675 5.39199 1.66675 10.0003C1.66675 14.6087 5.39175 18.3337 10.0001 18.3337C14.6084 18.3337 18.3334 14.6087 18.3334 10.0003C18.3334 5.39199 14.6084 1.66699 10.0001 1.66699ZM10.0001 16.667C6.32508 16.667 3.33341 13.6753 3.33341 10.0003C3.33341 6.32533 6.32508 3.33366 10.0001 3.33366C13.6751 3.33366 16.6667 6.32533 16.6667 10.0003C16.6667 13.6753 13.6751 16.667 10.0001 16.667ZM10.0001 8.82533L12.9917 5.83366L14.1667 7.00866L11.1751 10.0003L14.1667 12.992L12.9917 14.167L10.0001 11.1753L7.00841 14.167L5.83341 12.992L8.82508 10.0003L5.83341 7.00866L7.00841 5.83366L10.0001 8.82533Z" fill="currentColor"/>
</svg>