<svg xmlns="http://www.w3.org/2000/svg" width="current" height="current" viewBox="0 0 24 25" fill="none">
<mask id="mask0_173_4286" style="mask-type:alpha" maskUnits="userSpaceOnUse" x="0" y="0" width="24" height="25">
<rect y="0.5" width="24" height="24" fill="currentColor"/>
</mask>
<g mask="url(#mask0_173_4286)">
<path d="M1 17.7C1 17.1333 1.14583 16.6125 1.4375 16.1375C1.72917 15.6625 2.11667 15.3 2.6 15.05C3.63333 14.5333 4.68333 14.1458 5.75 13.8875C6.81667 13.6292 7.9 13.5 9 13.5C10.1 13.5 11.1833 13.6292 12.25 13.8875C13.3167 14.1458 14.3667 14.5333 15.4 15.05C15.8833 15.3 16.2708 15.6625 16.5625 16.1375C16.8542 16.6125 17 17.1333 17 17.7V18.5C17 19.05 16.8042 19.5208 16.4125 19.9125C16.0208 20.3042 15.55 20.5 15 20.5H3C2.45 20.5 1.97917 20.3042 1.5875 19.9125C1.19583 19.5208 1 19.05 1 18.5V17.7ZM21 20.5H18.45C18.6333 20.2 18.7708 19.8792 18.8625 19.5375C18.9542 19.1958 19 18.85 19 18.5V17.5C19 16.7667 18.7958 16.0625 18.3875 15.3875C17.9792 14.7125 17.4 14.1333 16.65 13.65C17.5 13.75 18.3 13.9208 19.05 14.1625C19.8 14.4042 20.5 14.7 21.15 15.05C21.75 15.3833 22.2083 15.7542 22.525 16.1625C22.8417 16.5708 23 17.0167 23 17.5V18.5C23 19.05 22.8042 19.5208 22.4125 19.9125C22.0208 20.3042 21.55 20.5 21 20.5ZM9 12.5C7.9 12.5 6.95833 12.1083 6.175 11.325C5.39167 10.5417 5 9.6 5 8.5C5 7.4 5.39167 6.45833 6.175 5.675C6.95833 4.89167 7.9 4.5 9 4.5C10.1 4.5 11.0417 4.89167 11.825 5.675C12.6083 6.45833 13 7.4 13 8.5C13 9.6 12.6083 10.5417 11.825 11.325C11.0417 12.1083 10.1 12.5 9 12.5ZM19 8.5C19 9.6 18.6083 10.5417 17.825 11.325C17.0417 12.1083 16.1 12.5 15 12.5C14.8167 12.5 14.5833 12.4792 14.3 12.4375C14.0167 12.3958 13.7833 12.35 13.6 12.3C14.05 11.7667 14.3958 11.175 14.6375 10.525C14.8792 9.875 15 9.2 15 8.5C15 7.8 14.8792 7.125 14.6375 6.475C14.3958 5.825 14.05 5.23333 13.6 4.7C13.8333 4.61667 14.0667 4.5625 14.3 4.5375C14.5333 4.5125 14.7667 4.5 15 4.5C16.1 4.5 17.0417 4.89167 17.825 5.675C18.6083 6.45833 19 7.4 19 8.5ZM3 18.5H15V17.7C15 17.5167 14.9542 17.35 14.8625 17.2C14.7708 17.05 14.65 16.9333 14.5 16.85C13.6 16.4 12.6917 16.0625 11.775 15.8375C10.8583 15.6125 9.93333 15.5 9 15.5C8.06667 15.5 7.14167 15.6125 6.225 15.8375C5.30833 16.0625 4.4 16.4 3.5 16.85C3.35 16.9333 3.22917 17.05 3.1375 17.2C3.04583 17.35 3 17.5167 3 17.7V18.5ZM9 10.5C9.55 10.5 10.0208 10.3042 10.4125 9.9125C10.8042 9.52083 11 9.05 11 8.5C11 7.95 10.8042 7.47917 10.4125 7.0875C10.0208 6.69583 9.55 6.5 9 6.5C8.45 6.5 7.97917 6.69583 7.5875 7.0875C7.19583 7.47917 7 7.95 7 8.5C7 9.05 7.19583 9.52083 7.5875 9.9125C7.97917 10.3042 8.45 10.5 9 10.5Z" fill="currentColor"/>
</g>
</svg>