<svg width="current" height="current" viewBox="0 0 28 28" fill="none" xmlns="http://www.w3.org/2000/svg">
<g id="icon">
<mask id="mask0_78_3033" style="mask-type:alpha" maskUnits="userSpaceOnUse" x="0" y="0" width="28" height="28">
<rect id="Bounding box" width="28" height="28" fill="currentColor"/>
</mask>
<g mask="url(#mask0_78_3033)">
<path id="Subtract" fill-rule="evenodd" clip-rule="evenodd" d="M13.1832 24.7334C13.4554 24.8306 13.7276 24.8792 13.9998 24.8792C14.2721 24.8792 14.5443 24.8306 14.8165 24.7334C15.0887 24.6362 15.3318 24.4903 15.5457 24.2959C16.8096 23.1292 17.9276 21.9917 18.8998 20.8834C19.8721 19.775 20.6839 18.7007 21.3353 17.6605C21.9866 16.6202 22.4825 15.6188 22.8228 14.6563C23.163 13.6938 23.3332 12.775 23.3332 11.9C23.3332 8.98337 22.395 6.65976 20.5186 4.92921C18.6422 3.19865 16.4693 2.33337 13.9998 2.33337C11.5304 2.33337 9.35748 3.19865 7.48109 4.92921C5.6047 6.65976 4.6665 8.98337 4.6665 11.9C4.6665 12.775 4.83664 13.6938 5.17692 14.6563C5.5172 15.6188 6.01303 16.6202 6.66442 17.6605C7.31581 18.7007 8.12762 19.775 9.09984 20.8834C10.0721 21.9917 11.1901 23.1292 12.454 24.2959C12.6679 24.4903 12.9109 24.6362 13.1832 24.7334ZM8.58942 10.6605C8.87137 10.9424 9.2165 11.0834 9.62484 11.0834C10.0332 11.0834 10.3783 10.9424 10.6603 10.6605C10.9422 10.3785 11.0832 10.0334 11.0832 9.62504C11.0832 9.21671 10.9422 8.87157 10.6603 8.58962C10.3783 8.30768 10.0332 8.16671 9.62484 8.16671C9.2165 8.16671 8.87137 8.30768 8.58942 8.58962C8.30748 8.87157 8.1665 9.21671 8.1665 9.62504C8.1665 10.0334 8.30748 10.3785 8.58942 10.6605ZM11.2144 8.32712C11.4964 8.60907 11.8415 8.75004 12.2498 8.75004C12.6582 8.75004 13.0033 8.60907 13.2853 8.32712C13.5672 8.04518 13.7082 7.70004 13.7082 7.29171C13.7082 6.88337 13.5672 6.53824 13.2853 6.25629C13.0033 5.97435 12.6582 5.83337 12.2498 5.83337C11.8415 5.83337 11.4964 5.97435 11.2144 6.25629C10.9325 6.53824 10.7915 6.88337 10.7915 7.29171C10.7915 7.70004 10.9325 8.04518 11.2144 8.32712ZM14.7144 8.32712C14.9964 8.60907 15.3415 8.75004 15.7498 8.75004C16.1582 8.75004 16.5033 8.60907 16.7853 8.32712C17.0672 8.04518 17.2082 7.70004 17.2082 7.29171C17.2082 6.88337 17.0672 6.53824 16.7853 6.25629C16.5033 5.97435 16.1582 5.83337 15.7498 5.83337C15.3415 5.83337 14.9964 5.97435 14.7144 6.25629C14.4325 6.53824 14.2915 6.88337 14.2915 7.29171C14.2915 7.70004 14.4325 8.04518 14.7144 8.32712ZM17.3394 10.6605C17.6214 10.9424 17.9665 11.0834 18.3748 11.0834C18.7832 11.0834 19.1283 10.9424 19.4103 10.6605C19.6922 10.3785 19.8332 10.0334 19.8332 9.62504C19.8332 9.21671 19.6922 8.87157 19.4103 8.58962C19.1283 8.30768 18.7832 8.16671 18.3748 8.16671C17.9665 8.16671 17.6214 8.30768 17.3394 8.58962C17.0575 8.87157 16.9165 9.21671 16.9165 9.62504C16.9165 10.0334 17.0575 10.3785 17.3394 10.6605ZM9.77796 16.4136C10.0745 16.749 10.4415 16.9167 10.879 16.9167C11.404 16.9167 11.9241 16.873 12.4394 16.7855C12.9547 16.698 13.4748 16.6542 13.9998 16.6542C14.5248 16.6542 15.045 16.698 15.5603 16.7855C16.0755 16.873 16.5957 16.9167 17.1207 16.9167C17.5582 16.9167 17.9252 16.749 18.2217 16.4136C18.5182 16.0782 18.6665 15.682 18.6665 15.225C18.6665 14.7195 18.4939 14.2771 18.1488 13.898C17.8037 13.5188 17.4609 13.1445 17.1207 12.775C16.8387 12.4639 16.5932 12.1285 16.3842 11.7688C16.1752 11.4091 15.9346 11.0737 15.6623 10.7625C15.4484 10.5098 15.2005 10.3056 14.9186 10.15C14.6366 9.99449 14.3304 9.91671 13.9998 9.91671C13.6693 9.91671 13.363 9.99935 13.0811 10.1646C12.7991 10.3299 12.5512 10.5389 12.3373 10.7917C12.0554 11.1028 11.8123 11.4358 11.6082 11.7907C11.404 12.1455 11.1609 12.4737 10.879 12.775C10.5387 13.1445 10.196 13.5188 9.85088 13.898C9.50574 14.2771 9.33317 14.7195 9.33317 15.225C9.33317 15.682 9.48143 16.0782 9.77796 16.4136Z" fill="currentColor"/>
</g>
</g>
</svg>
