<svg width="current" height="current" viewBox="0 0 24 24" fill="none" xmlns="http://www.w3.org/2000/svg">
<g id="icon">
<mask id="mask0_116_729" style="mask-type:alpha" maskUnits="userSpaceOnUse" x="0" y="0" width="24" height="24">
<rect id="Bounding box" width="24" height="24" fill="#D9D9D9"/>
</mask>
<g mask="url(#mask0_116_729)">
<path id="favorite" d="M12 20.3249C11.7667 20.3249 11.5292 20.2832 11.2875 20.1999C11.0458 20.1166 10.8333 19.9832 10.65 19.7999L8.925 18.2249C7.15833 16.6082 5.5625 15.0041 4.1375 13.4124C2.7125 11.8207 2 10.0666 2 8.1499C2 6.58324 2.525 5.2749 3.575 4.2249C4.625 3.1749 5.93333 2.6499 7.5 2.6499C8.38333 2.6499 9.21667 2.8374 10 3.2124C10.7833 3.5874 11.45 4.0999 12 4.7499C12.55 4.0999 13.2167 3.5874 14 3.2124C14.7833 2.8374 15.6167 2.6499 16.5 2.6499C18.0667 2.6499 19.375 3.1749 20.425 4.2249C21.475 5.2749 22 6.58324 22 8.1499C22 10.0666 21.2917 11.8249 19.875 13.4249C18.4583 15.0249 16.85 16.6332 15.05 18.2499L13.35 19.7999C13.1667 19.9832 12.9542 20.1166 12.7125 20.1999C12.4708 20.2832 12.2333 20.3249 12 20.3249ZM11.05 6.7499C10.5667 6.06657 10.05 5.54574 9.5 5.1874C8.95 4.82907 8.28333 4.6499 7.5 4.6499C6.5 4.6499 5.66667 4.98324 5 5.6499C4.33333 6.31657 4 7.1499 4 8.1499C4 9.01657 4.30833 9.9374 4.925 10.9124C5.54167 11.8874 6.27917 12.8332 7.1375 13.7499C7.99583 14.6666 8.87917 15.5249 9.7875 16.3249C10.6958 17.1249 11.4333 17.7832 12 18.2999C12.5667 17.7832 13.3042 17.1249 14.2125 16.3249C15.1208 15.5249 16.0042 14.6666 16.8625 13.7499C17.7208 12.8332 18.4583 11.8874 19.075 10.9124C19.6917 9.9374 20 9.01657 20 8.1499C20 7.1499 19.6667 6.31657 19 5.6499C18.3333 4.98324 17.5 4.6499 16.5 4.6499C15.7167 4.6499 15.05 4.82907 14.5 5.1874C13.95 5.54574 13.4333 6.06657 12.95 6.7499C12.8333 6.91657 12.6917 7.04157 12.525 7.1249C12.3583 7.20824 12.1833 7.2499 12 7.2499C11.8167 7.2499 11.6417 7.20824 11.475 7.1249C11.3083 7.04157 11.1667 6.91657 11.05 6.7499Z" fill="currentColor"/>
</g>
</g>
</svg>
