<svg width="current" height="current" viewBox="0 0 24 24" fill="none" xmlns="http://www.w3.org/2000/svg">
<g id="icon/map/location_searching">
<mask id="mask0_133_1174" style="mask-type:alpha" maskUnits="userSpaceOnUse" x="0" y="0" width="24" height="24">
<rect id="Bounding box" width="24" height="24" fill="#D9D9D9"/>
</mask>
<g mask="url(#mask0_133_1174)">
<path id="location_searching" d="M11.0008 22.0016V21.0016C8.91745 20.7682 7.12995 19.9057 5.63828 18.4141C4.14661 16.9224 3.28411 15.1349 3.05078 13.0516H2.05078C1.76745 13.0516 1.52995 12.9557 1.33828 12.7641C1.14661 12.5724 1.05078 12.3349 1.05078 12.0516C1.05078 11.7682 1.14661 11.5307 1.33828 11.3391C1.52995 11.1474 1.76745 11.0516 2.05078 11.0516H3.05078C3.28411 8.96823 4.14661 7.18073 5.63828 5.68906C7.12995 4.1974 8.91745 3.3349 11.0008 3.10156V2.10156C11.0008 1.81823 11.0966 1.58073 11.2883 1.38906C11.4799 1.1974 11.7174 1.10156 12.0008 1.10156C12.2841 1.10156 12.5216 1.1974 12.7133 1.38906C12.9049 1.58073 13.0008 1.81823 13.0008 2.10156V3.10156C15.0841 3.3349 16.8716 4.1974 18.3633 5.68906C19.8549 7.18073 20.7174 8.96823 20.9508 11.0516H21.9508C22.2341 11.0516 22.4716 11.1474 22.6633 11.3391C22.8549 11.5307 22.9508 11.7682 22.9508 12.0516C22.9508 12.3349 22.8549 12.5724 22.6633 12.7641C22.4716 12.9557 22.2341 13.0516 21.9508 13.0516H20.9508C20.7174 15.1349 19.8549 16.9224 18.3633 18.4141C16.8716 19.9057 15.0841 20.7682 13.0008 21.0016V22.0016C13.0008 22.2849 12.9049 22.5224 12.7133 22.7141C12.5216 22.9057 12.2841 23.0016 12.0008 23.0016C11.7174 23.0016 11.4799 22.9057 11.2883 22.7141C11.0966 22.5224 11.0008 22.2849 11.0008 22.0016ZM12.0008 19.0516C13.9341 19.0516 15.5841 18.3682 16.9508 17.0016C18.3174 15.6349 19.0008 13.9849 19.0008 12.0516C19.0008 10.1182 18.3174 8.46823 16.9508 7.10156C15.5841 5.7349 13.9341 5.05156 12.0008 5.05156C10.0674 5.05156 8.41745 5.7349 7.05078 7.10156C5.68411 8.46823 5.00078 10.1182 5.00078 12.0516C5.00078 13.9849 5.68411 15.6349 7.05078 17.0016C8.41745 18.3682 10.0674 19.0516 12.0008 19.0516Z" fill="current"/>
</g>
</g>
</svg>
