<svg xmlns="http://www.w3.org/2000/svg" width="current" height="current" viewBox="0 0 24 25" fill="none">
<mask id="mask0_173_4283" style="mask-type:alpha" maskUnits="userSpaceOnUse" x="0" y="0" width="24" height="25">
<rect y="0.5" width="24" height="24" fill="currentColor"/>
</mask>
<g mask="url(#mask0_173_4283)">
<path d="M14.35 21.275L9 19.4L4.35 21.2C4.18333 21.2667 4.02083 21.2875 3.8625 21.2625C3.70417 21.2375 3.55833 21.1833 3.425 21.1C3.29167 21.0167 3.1875 20.9042 3.1125 20.7625C3.0375 20.6208 3 20.4583 3 20.275V6.25C3 6.03333 3.0625 5.84167 3.1875 5.675C3.3125 5.50833 3.48333 5.38333 3.7 5.3L8.35 3.725C8.45 3.69167 8.55417 3.66667 8.6625 3.65C8.77083 3.63333 8.88333 3.625 9 3.625C9.11667 3.625 9.22917 3.63333 9.3375 3.65C9.44583 3.66667 9.55 3.69167 9.65 3.725L15 5.6L19.65 3.8C19.8167 3.73333 19.9792 3.7125 20.1375 3.7375C20.2958 3.7625 20.4417 3.81667 20.575 3.9C20.7083 3.98333 20.8125 4.09583 20.8875 4.2375C20.9625 4.37917 21 4.54167 21 4.725V18.75C21 18.9667 20.9375 19.1583 20.8125 19.325C20.6875 19.4917 20.5167 19.6167 20.3 19.7L15.65 21.275C15.55 21.3083 15.4458 21.3333 15.3375 21.35C15.2292 21.3667 15.1167 21.375 15 21.375C14.8833 21.375 14.7708 21.3667 14.6625 21.35C14.5542 21.3333 14.45 21.3083 14.35 21.275ZM14 19.05V7.35L10 5.95V17.65L14 19.05ZM16 19.05L19 18.05V6.2L16 7.35V19.05ZM5 18.8L8 17.65V5.95L5 6.95V18.8Z" fill="currentColor"/>
</g>
</svg>