<svg xmlns="http://www.w3.org/2000/svg" width="current" height="current" viewBox="0 0 24 24" fill="none">
<mask id="mask0_511_1421" style="mask-type:alpha" maskUnits="userSpaceOnUse" x="0" y="0" width="24" height="24">
<rect width="24" height="24" fill="currentColor"/>
</mask>
<g mask="url(#mask0_511_1421)">
<path d="M11 21.95V20.95C8.91672 20.7167 7.12922 19.8542 5.63755 18.3625C4.14588 16.8708 3.28338 15.0833 3.05005 13H2.05005C1.76672 13 1.52922 12.9042 1.33755 12.7125C1.14588 12.5208 1.05005 12.2833 1.05005 12C1.05005 11.7167 1.14588 11.4792 1.33755 11.2875C1.52922 11.0958 1.76672 11 2.05005 11H3.05005C3.28338 8.91665 4.14588 7.12915 5.63755 5.63749C7.12922 4.14582 8.91672 3.28332 11 3.04999V2.04999C11 1.76665 11.0959 1.52915 11.2875 1.33749C11.4792 1.14582 11.7167 1.04999 12 1.04999C12.2834 1.04999 12.5209 1.14582 12.7125 1.33749C12.9042 1.52915 13 1.76665 13 2.04999V3.04999C15.0834 3.28332 16.8709 4.14582 18.3625 5.63749C19.8542 7.12915 20.7167 8.91665 20.95 11H21.95C22.2334 11 22.4709 11.0958 22.6625 11.2875C22.8542 11.4792 22.95 11.7167 22.95 12C22.95 12.2833 22.8542 12.5208 22.6625 12.7125C22.4709 12.9042 22.2334 13 21.95 13H20.95C20.7167 15.0833 19.8542 16.8708 18.3625 18.3625C16.8709 19.8542 15.0834 20.7167 13 20.95V21.95C13 22.2333 12.9042 22.4708 12.7125 22.6625C12.5209 22.8542 12.2834 22.95 12 22.95C11.7167 22.95 11.4792 22.8542 11.2875 22.6625C11.0959 22.4708 11 22.2333 11 21.95ZM12 19C13.9334 19 15.5834 18.3167 16.95 16.95C18.3167 15.5833 19 13.9333 19 12C19 10.0667 18.3167 8.41665 16.95 7.04999C15.5834 5.68332 13.9334 4.99999 12 4.99999C10.0667 4.99999 8.41672 5.68332 7.05005 7.04999C5.68338 8.41665 5.00005 10.0667 5.00005 12C5.00005 13.9333 5.68338 15.5833 7.05005 16.95C8.41672 18.3167 10.0667 19 12 19ZM12 16C10.9 16 9.95838 15.6083 9.17505 14.825C8.39172 14.0417 8.00005 13.1 8.00005 12C8.00005 10.9 8.39172 9.95832 9.17505 9.17499C9.95838 8.39165 10.9 7.99999 12 7.99999C13.1 7.99999 14.0417 8.39165 14.825 9.17499C15.6084 9.95832 16 10.9 16 12C16 13.1 15.6084 14.0417 14.825 14.825C14.0417 15.6083 13.1 16 12 16ZM12 14C12.55 14 13.0209 13.8042 13.4125 13.4125C13.8042 13.0208 14 12.55 14 12C14 11.45 13.8042 10.9792 13.4125 10.5875C13.0209 10.1958 12.55 9.99999 12 9.99999C11.45 9.99999 10.9792 10.1958 10.5875 10.5875C10.1959 10.9792 10 11.45 10 12C10 12.55 10.1959 13.0208 10.5875 13.4125C10.9792 13.8042 11.45 14 12 14Z" fill="currentColor"/>
</g>
</svg>