<svg width="current" height="current" viewBox="0 0 20 20" fill="none" xmlns="http://www.w3.org/2000/svg">
<g id="icon/reset">
<path id="icon" d="M9.16683 17.4585C7.48627 17.2502 6.09391 16.5175 4.98975 15.2606C3.88558 14.0036 3.3335 12.5279 3.3335 10.8335C3.3335 9.91683 3.51405 9.03836 3.87516 8.19808C4.23627 7.3578 4.75016 6.62516 5.41683 6.00016L6.60433 7.18766C6.07655 7.65989 5.67725 8.2085 5.40641 8.8335C5.13558 9.4585 5.00016 10.1252 5.00016 10.8335C5.00016 12.0557 5.38905 13.1356 6.16683 14.0731C6.94461 15.0106 7.94461 15.5835 9.16683 15.7918V17.4585ZM10.8335 17.4585V15.7918C12.0418 15.5696 13.0384 14.9932 13.8231 14.0627C14.6078 13.1321 15.0002 12.0557 15.0002 10.8335C15.0002 9.44461 14.5141 8.26405 13.5418 7.29183C12.5696 6.31961 11.3891 5.8335 10.0002 5.8335H9.93766L10.8543 6.75016L9.68766 7.91683L6.771 5.00016L9.68766 2.0835L10.8543 3.25016L9.93766 4.16683H10.0002C11.8613 4.16683 13.4377 4.81266 14.7293 6.10433C16.021 7.396 16.6668 8.97239 16.6668 10.8335C16.6668 12.5141 16.1147 13.9828 15.0106 15.2397C13.9064 16.4967 12.5141 17.2363 10.8335 17.4585Z" fill="currentColor"/>
</g>
</svg>
